# Blender v2.79 (sub 0) OBJ File: ''
# www.blender.org
o Cube.001_Cube
v 0.254327 1.710212 -2.534896
v 0.074946 1.399770 0.253880
v -1.925054 1.399770 0.253879
v -1.745672 1.710212 -2.534897
v 0.254328 3.710212 -2.534896
v 0.074945 3.399770 0.253880
v -1.925055 3.399770 0.253879
v -1.745673 3.710212 -2.534896
v 0.254328 6.887694 -2.181184
v 0.074945 6.577252 0.607592
v -1.745673 6.887694 -2.181184
v -1.925055 6.577252 0.607591
v 2.081181 1.710212 -2.417388
v 1.901799 1.399770 0.371388
v 2.081182 3.710212 -2.417387
v 1.901799 3.399770 0.371389
v 0.254327 -0.008712 -2.726244
v 0.074946 -0.319154 0.062532
v -1.745672 -0.008712 -2.726244
v -1.925054 -0.319154 0.062532
v -4.217021 1.399770 0.106454
v -4.037639 1.710212 -2.682323
v -4.217021 3.399770 0.106454
v -4.037639 3.710212 -2.682322
v 0.254328 1.710213 -5.728261
v -1.745672 1.710213 -5.728261
v 0.254329 3.710213 -5.728260
v -1.745672 3.710213 -5.728261
v 0.074945 1.399770 3.511872
v -1.925055 1.399770 3.511872
v 0.074944 3.399770 3.511872
v -1.925056 3.399770 3.511871
vt 1.000000 0.000000
vt 0.000000 1.000000
vt 0.000000 0.000000
vt 1.000000 0.000000
vt 0.000000 1.000000
vt 0.000000 0.000000
vt 0.000000 1.000000
vt 0.000000 0.000000
vt 0.000000 0.000000
vt 1.000000 1.000000
vt 0.000000 1.000000
vt 1.000000 1.000000
vt 0.000000 1.000000
vt 1.000000 0.000000
vt 0.000000 1.000000
vt 0.000000 0.000000
vt 1.000000 0.000000
vt 0.000000 1.000000
vt 0.000000 0.000000
vt 1.000000 0.000000
vt 0.000000 0.000000
vt 1.000000 0.000000
vt 0.000000 1.000000
vt 0.000000 0.000000
vt 1.000000 0.000000
vt 0.000000 1.000000
vt 0.000000 0.000000
vt 1.000000 1.000000
vt 0.000000 1.000000
vt 1.000000 0.000000
vt 0.000000 1.000000
vt 0.000000 1.000000
vt 1.000000 1.000000
vt 1.000000 0.000000
vt 0.000000 1.000000
vt 0.000000 0.000000
vt 1.000000 0.000000
vt 0.000000 0.000000
vt 0.000000 1.000000
vt 0.000000 1.000000
vt 1.000000 0.000000
vt 0.000000 1.000000
vt 0.000000 0.000000
vt 0.000000 1.000000
vt 0.000000 1.000000
vt 1.000000 0.000000
vt 0.000000 1.000000
vt 0.000000 0.000000
vt 1.000000 1.000000
vt 0.000000 1.000000
vt 0.000000 1.000000
vt 1.000000 0.000000
vt 0.000000 0.000000
vt 0.000000 1.000000
vt 0.000000 1.000000
vt 0.000000 1.000000
vt 1.000000 1.000000
vt 1.000000 1.000000
vt 1.000000 1.000000
vt 1.000000 1.000000
vt 1.000000 1.000000
vt 1.000000 1.000000
vt 1.000000 0.000000
vt 1.000000 1.000000
vt 1.000000 1.000000
vt 1.000000 1.000000
vt 1.000000 1.000000
vt 1.000000 1.000000
vt 1.000000 1.000000
vt 1.000000 1.000000
vt 1.000000 1.000000
vt 1.000000 1.000000
vt 1.000000 1.000000
vt 1.000000 1.000000
vt 1.000000 1.000000
vt 1.000000 1.000000
vn -0.0000 -0.1106 0.9939
vn -0.0071 0.9939 0.1102
vn 0.0000 -1.0000 -0.0000
vn -0.0642 0.0000 0.9979
vn -0.0000 0.9939 0.1106
vn 0.9980 -0.0071 0.0634
vn -0.9980 0.0071 -0.0634
vn 0.0000 0.1106 -0.9939
vn 0.9979 0.0000 0.0642
vn 0.0642 0.0000 -0.9979
vn 0.0071 -0.9939 -0.1102
vn 0.0000 -0.9939 -0.1106
vn -0.9979 0.0000 -0.0642
vn 0.0000 0.0000 -1.0000
vn 1.0000 -0.0000 0.0000
vn -0.0000 1.0000 -0.0000
vn -1.0000 -0.0000 -0.0000
vn 0.0000 -0.0000 1.0000
s off
f 3/1/1 18/2/1 2/3/1
f 6/4/1 12/5/1 7/6/1
f 6/4/2 15/7/2 5/8/2
f 3/9/3 29/10/3 30/11/3
f 3/9/4 23/12/4 21/13/4
f 4/14/3 25/15/3 1/16/3
f 11/17/5 10/18/5 9/19/5
f 5/20/6 10/18/6 6/21/6
f 7/22/7 11/23/7 8/24/7
f 8/25/8 9/26/8 5/8/8
f 13/27/9 16/28/9 14/29/9
f 2/30/4 16/31/4 6/21/4
f 5/20/10 13/32/10 1/16/10
f 2/3/11 13/33/11 14/29/11
f 18/34/12 19/35/12 17/36/12
f 1/37/8 19/35/8 4/38/8
f 2/30/6 17/39/6 1/16/6
f 4/14/7 20/40/7 3/9/7
f 23/41/13 22/42/13 21/43/13
f 8/25/2 23/44/2 7/6/2
f 4/14/10 24/45/10 8/24/10
f 3/1/11 22/42/11 4/38/11
f 25/46/14 28/47/14 27/48/14
f 5/8/15 25/49/15 27/50/15
f 5/20/16 28/47/16 8/24/16
f 8/25/17 26/51/17 4/38/17
f 31/52/18 30/11/18 29/53/18
f 7/22/16 31/54/16 6/21/16
f 3/1/17 32/55/17 7/6/17
f 6/4/15 29/56/15 2/3/15
f 3/1/1 20/57/1 18/2/1
f 6/4/1 10/58/1 12/5/1
f 6/4/2 16/28/2 15/7/2
f 3/9/3 2/30/3 29/10/3
f 3/9/4 7/22/4 23/12/4
f 4/14/3 26/59/3 25/15/3
f 11/17/5 12/60/5 10/18/5
f 5/20/6 9/61/6 10/18/6
f 7/22/7 12/60/7 11/23/7
f 8/25/8 11/62/8 9/26/8
f 13/27/9 15/63/9 16/28/9
f 2/30/4 14/64/4 16/31/4
f 5/20/10 15/65/10 13/32/10
f 2/3/11 1/37/11 13/33/11
f 18/34/12 20/57/12 19/35/12
f 1/37/8 17/66/8 19/35/8
f 2/30/6 18/67/6 17/39/6
f 4/14/7 19/68/7 20/40/7
f 23/41/13 24/69/13 22/42/13
f 8/25/2 24/69/2 23/44/2
f 4/14/10 22/70/10 24/45/10
f 3/1/11 21/71/11 22/42/11
f 25/46/14 26/59/14 28/47/14
f 5/8/15 1/37/15 25/49/15
f 5/20/16 27/72/16 28/47/16
f 8/25/17 28/73/17 26/51/17
f 31/52/18 32/74/18 30/11/18
f 7/22/16 32/74/16 31/54/16
f 3/1/17 30/75/17 32/55/17
f 6/4/15 31/76/15 29/56/15
o Cube
v 1.000000 -1.000000 -1.000000
v 0.820619 -1.310442 1.788776
v -1.179382 -1.310442 1.788776
v -1.000000 -1.000000 -1.000000
v 1.000000 1.000000 -0.999999
v 0.820618 0.689558 1.788777
v -1.179382 0.689558 1.788776
v -1.000000 1.000000 -1.000000
v 1.000000 4.177483 -0.646287
v 0.820618 3.867041 2.142488
v -1.000000 4.177483 -0.646288
v -1.179382 3.867041 2.142488
v 2.826854 -1.000000 -0.882491
v 2.647472 -1.310442 1.906284
v 2.826854 1.000000 -0.882491
v 2.647471 0.689558 1.906285
v 1.000000 -2.718924 -1.191348
v 0.820619 -3.029366 1.597428
v -1.000000 -2.718924 -1.191348
v -1.179382 -3.029366 1.597428
v -3.471348 -1.310442 1.641350
v -3.291966 -1.000000 -1.147426
v -3.471348 0.689558 1.641350
v -3.291966 1.000000 -1.147426
v 1.000001 -0.999999 -4.193364
v -0.999999 -0.999999 -4.193365
v 1.000001 1.000001 -4.193364
v -0.999999 1.000001 -4.193364
v 0.820618 -1.310442 5.046768
v -1.179383 -1.310442 5.046768
v 0.820617 0.689558 5.046769
v -1.179383 0.689558 5.046768
vt 1.000000 0.000000
vt 0.000000 1.000000
vt 0.000000 0.000000
vt 1.000000 0.000000
vt 0.000000 1.000000
vt 0.000000 0.000000
vt 0.000000 1.000000
vt 0.000000 0.000000
vt 0.000000 0.000000
vt 1.000000 1.000000
vt 0.000000 1.000000
vt 1.000000 1.000000
vt 0.000000 1.000000
vt 1.000000 0.000000
vt 0.000000 1.000000
vt 0.000000 0.000000
vt 1.000000 0.000000
vt 0.000000 1.000000
vt 0.000000 0.000000
vt 1.000000 0.000000
vt 0.000000 0.000000
vt 1.000000 0.000000
vt 0.000000 1.000000
vt 0.000000 0.000000
vt 1.000000 0.000000
vt 0.000000 1.000000
vt 0.000000 0.000000
vt 1.000000 1.000000
vt 0.000000 1.000000
vt 1.000000 0.000000
vt 0.000000 1.000000
vt 0.000000 1.000000
vt 1.000000 1.000000
vt 1.000000 0.000000
vt 0.000000 1.000000
vt 0.000000 0.000000
vt 1.000000 0.000000
vt 0.000000 0.000000
vt 0.000000 1.000000
vt 0.000000 1.000000
vt 1.000000 0.000000
vt 0.000000 1.000000
vt 0.000000 0.000000
vt 0.000000 1.000000
vt 0.000000 1.000000
vt 1.000000 0.000000
vt 0.000000 1.000000
vt 0.000000 0.000000
vt 1.000000 1.000000
vt 0.000000 1.000000
vt 0.000000 1.000000
vt 1.000000 0.000000
vt 0.000000 0.000000
vt 0.000000 1.000000
vt 0.000000 1.000000
vt 0.000000 1.000000
vt 1.000000 1.000000
vt 1.000000 1.000000
vt 1.000000 1.000000
vt 1.000000 1.000000
vt 1.000000 1.000000
vt 1.000000 1.000000
vt 1.000000 0.000000
vt 1.000000 1.000000
vt 1.000000 1.000000
vt 1.000000 1.000000
vt 1.000000 1.000000
vt 1.000000 1.000000
vt 1.000000 1.000000
vt 1.000000 1.000000
vt 1.000000 1.000000
vt 1.000000 1.000000
vt 1.000000 1.000000
vt 1.000000 1.000000
vt 1.000000 1.000000
vt 1.000000 1.000000
vn -0.0000 -0.1106 0.9939
vn -0.0071 0.9939 0.1102
vn 0.0000 -1.0000 -0.0000
vn -0.0642 0.0000 0.9979
vn -0.0000 0.9939 0.1106
vn 0.9980 -0.0071 0.0634
vn -0.9980 0.0071 -0.0634
vn 0.0000 0.1106 -0.9939
vn 0.9979 0.0000 0.0642
vn 0.0642 0.0000 -0.9979
vn 0.0071 -0.9939 -0.1102
vn 0.0000 -0.9939 -0.1106
vn -0.9979 0.0000 -0.0642
vn 0.0000 0.0000 -1.0000
vn 1.0000 -0.0000 0.0000
vn -0.0000 1.0000 0.0000
vn -1.0000 -0.0000 -0.0000
vn 0.0000 -0.0000 1.0000
s off
f 35/77/19 50/78/19 34/79/19
f 38/80/19 44/81/19 39/82/19
f 38/80/20 47/83/20 37/84/20
f 35/85/21 61/86/21 62/87/21
f 35/85/22 55/88/22 53/89/22
f 36/90/21 57/91/21 33/92/21
f 43/93/23 42/94/23 41/95/23
f 37/96/24 42/94/24 38/97/24
f 39/98/25 43/99/25 40/100/25
f 40/101/26 41/102/26 37/84/26
f 45/103/27 48/104/27 46/105/27
f 34/106/22 48/107/22 38/97/22
f 37/96/28 45/108/28 33/92/28
f 34/79/29 45/109/29 46/105/29
f 50/110/30 51/111/30 49/112/30
f 33/113/26 51/111/26 36/114/26
f 34/106/24 49/115/24 33/92/24
f 36/90/25 52/116/25 35/85/25
f 55/117/31 54/118/31 53/119/31
f 40/101/20 55/120/20 39/82/20
f 36/90/28 56/121/28 40/100/28
f 35/77/29 54/118/29 36/114/29
f 57/122/32 60/123/32 59/124/32
f 37/84/33 57/125/33 59/126/33
f 37/96/34 60/123/34 40/100/34
f 40/101/35 58/127/35 36/114/35
f 63/128/36 62/87/36 61/129/36
f 39/98/34 63/130/34 38/97/34
f 35/77/35 64/131/35 39/82/35
f 38/80/33 61/132/33 34/79/33
f 35/77/19 52/133/19 50/78/19
f 38/80/19 42/134/19 44/81/19
f 38/80/20 48/104/20 47/83/20
f 35/85/21 34/106/21 61/86/21
f 35/85/22 39/98/22 55/88/22
f 36/90/21 58/135/21 57/91/21
f 43/93/23 44/136/23 42/94/23
f 37/96/24 41/137/24 42/94/24
f 39/98/25 44/136/25 43/99/25
f 40/101/26 43/138/26 41/102/26
f 45/103/27 47/139/27 48/104/27
f 34/106/22 46/140/22 48/107/22
f 37/96/28 47/141/28 45/108/28
f 34/79/29 33/113/29 45/109/29
f 50/110/30 52/133/30 51/111/30
f 33/113/26 49/142/26 51/111/26
f 34/106/24 50/143/24 49/115/24
f 36/90/25 51/144/25 52/116/25
f 55/117/31 56/145/31 54/118/31
f 40/101/20 56/145/20 55/120/20
f 36/90/28 54/146/28 56/121/28
f 35/77/29 53/147/29 54/118/29
f 57/122/32 58/135/32 60/123/32
f 37/84/33 33/113/33 57/125/33
f 37/96/34 59/148/34 60/123/34
f 40/101/35 60/149/35 58/127/35
f 63/128/36 64/150/36 62/87/36
f 39/98/34 64/150/34 63/130/34
f 35/77/35 62/151/35 64/131/35
f 38/80/33 63/152/33 61/132/33
